<svg width="100%" height="100%" viewBox="0 0 103 45" fill="none" xmlns="http://www.w3.org/2000/svg"><g clip-path="url(#clip0_2983_885)"><path d="M68.6604 19.4631C68.6604 18.878 68.8084 18.7113 69.3781 18.6076L70.4985 18.3984V17.1874C70.4985 14.5357 71.9148 13.5747 74.3018 13.5747C74.8508 13.5747 75.2948 13.6172 75.6545 13.6785C76.3946 13.8247 76.5632 13.9914 76.5632 14.6803V14.9303C76.5632 15.2858 76.4995 15.5154 76.3739 15.6192C76.1416 15.8063 75.3172 15.5987 74.4516 15.5987C73.2469 15.5987 72.6548 16.0784 72.6548 17.019V18.3967H75.4652C76.2052 18.3967 76.3532 18.543 76.3532 19.2743V19.5244C76.3532 20.2557 76.2052 20.402 75.4652 20.402H72.6548V27.8161C72.6548 28.5679 72.4638 28.755 71.7031 28.755H71.4502C70.6895 28.755 70.4985 28.5679 70.4985 27.8161V20.402H69.4005C68.8084 20.402 68.6604 20.2557 68.6604 19.6706V19.4631ZM78.1689 14.284C78.6972 13.7618 79.5422 13.7618 80.0499 14.284C80.5783 14.7857 80.5783 15.6209 80.0499 16.143C79.5422 16.6448 78.6972 16.6448 78.1689 16.143C77.6405 15.6209 77.6405 14.784 78.1689 14.284ZM78.0209 19.3373C78.0209 18.5855 78.2119 18.3984 78.9726 18.3984H79.2479C80.0086 18.3984 80.1979 18.5855 80.1979 19.3373V27.8161C80.1979 28.5679 80.0086 28.755 79.2479 28.755H78.9726C78.2119 28.755 78.0209 28.5679 78.0209 27.8161V19.3373ZM86.304 26.1033C86.4933 26.9181 86.7687 27.1052 87.3607 27.1052C87.9733 27.1052 88.2263 26.9385 88.4174 26.1033L90.0661 19.3169C90.2347 18.5855 90.4671 18.3984 91.2277 18.3984H91.5444C92.3051 18.3984 92.4531 18.5855 92.262 19.3169L90.572 26.2088C90.319 27.2327 89.98 27.9624 89.579 28.3604C89.178 28.7567 88.438 28.9659 87.3607 28.9659C86.2833 28.9659 85.5433 28.7771 85.1423 28.3808C84.7413 27.9845 84.4023 27.2531 84.1493 26.2088L82.4593 19.3169C82.2683 18.5855 82.4163 18.3984 83.177 18.3984H83.4936C84.2543 18.3984 84.4866 18.5855 84.6553 19.3169L86.304 26.1033ZM102.404 23.4092C102.319 24.1814 102.108 24.3702 101.326 24.3702H95.4527V24.8294C95.4527 26.3534 96.3408 26.9589 98.4748 26.9589C99.3405 26.9589 100.249 26.8551 101.221 26.6255C101.898 26.4588 102.087 26.6255 102.087 27.3569V27.629C102.087 28.3179 101.96 28.4642 101.221 28.653C100.376 28.8826 99.4678 28.9863 98.4748 28.9863C94.9244 28.9863 93.2774 27.6698 93.2774 24.5181V22.7016C93.2774 19.674 94.8418 18.1705 97.9688 18.1705C100.907 18.1705 102.449 19.6536 102.449 22.4924C102.447 22.8036 102.424 23.0962 102.404 23.4092ZM95.4527 22.6149H100.397V22.0927C100.397 20.715 99.5728 20.0261 97.9034 20.0261C96.2771 20.0261 95.4527 20.715 95.4527 22.0927V22.6149ZM36.4642 15.0358C36.4642 14.284 36.6553 14.0969 37.4159 14.0969H37.6689C38.4296 14.0969 38.6206 14.284 38.6206 15.0358V19.4835C39.1903 18.5855 40.2263 18.1262 41.727 18.1262C44.6647 18.1262 46.1224 19.6502 46.1224 22.6795V24.4756C46.1224 27.5032 44.5167 28.9438 41.283 28.9438C38.2609 28.9438 36.466 27.4606 36.466 24.4756V15.0358H36.4642ZM43.9454 22.637C43.9454 20.8834 43.3533 20.1316 41.3036 20.1316C39.254 20.1316 38.6206 20.8834 38.6206 22.637V24.4331C38.6206 26.1663 39.2126 26.9181 41.3036 26.9181C43.3946 26.9181 43.9454 26.1867 43.9454 24.4331V22.637ZM51.3198 26.02C51.5108 26.8551 51.7844 27.0439 52.4608 27.0439C52.9685 27.0439 53.2645 26.8347 53.4538 26.02L55.0388 19.2964C55.2075 18.5447 55.4398 18.3576 56.2229 18.3576H56.4982C57.2796 18.3576 57.4276 18.5447 57.2383 19.2964L54.9562 28.7142C54.2592 31.5751 52.8652 33.0582 50.4352 33.3082C49.9069 33.3712 49.6315 33.1824 49.4852 32.536L49.4215 32.2639C49.2735 31.6788 49.4422 31.5121 50.0136 31.4288C51.4506 31.24 52.2526 30.3844 52.7396 28.7346C52.5279 28.8383 52.2113 28.8809 51.7672 28.8809C50.1822 28.8809 49.6969 28.0457 49.2099 26.2071L47.4355 19.2947C47.2445 18.543 47.3925 18.3559 48.1755 18.3559H48.4509C49.2322 18.3559 49.4646 18.543 49.6556 19.2947L51.3198 26.02ZM67.3766 23.3666C67.2923 24.1388 67.0806 24.3276 66.2992 24.3276H60.4255V24.7869C60.4255 26.3108 61.3136 26.9164 63.4476 26.9164C64.3132 26.9164 65.2219 26.8126 66.1943 26.583C66.8706 26.4163 67.0599 26.583 67.0599 27.3144V27.5865C67.0599 28.2754 66.9326 28.4216 66.1943 28.6104C65.3493 28.84 64.4406 28.9438 63.4476 28.9438C59.8972 28.9438 58.2502 27.6273 58.2502 24.4756V22.6591C58.2502 19.6315 59.8146 18.1279 62.9416 18.1279C65.8793 18.1279 67.4213 19.6111 67.4213 22.4499C67.4196 22.7611 67.399 23.0537 67.3766 23.3666ZM60.4255 22.574H65.3699V22.0519C65.3699 20.6742 64.5456 19.9853 62.8762 19.9853C61.2499 19.9853 60.4255 20.6742 60.4255 22.0519V22.574Z" fill="#000"></path><path d="M14.5509 0C7.41228 0 1.48005 5.20467 0.43713 11.9758C0.435409 11.9861 0.431967 11.9963 0.430246 12.0065C0.144563 13.6121 0 15.2602 0 16.9033C0 24.2357 2.83963 31.177 7.99742 36.4463C13.1414 41.702 20.0392 44.7398 27.4205 44.9983C27.4325 44.9983 27.4463 44.9983 27.4583 44.9983H27.7647C28.3532 44.9983 28.8282 44.5272 28.8282 43.9472V14.1104C28.8282 6.32895 22.4227 0 14.5509 0ZM17.8432 27.8399C20.287 30.1565 23.3727 31.5818 26.6994 31.9509V36.3528C22.0854 35.9548 17.7778 33.9749 14.4752 30.7093C13.6319 29.8758 12.873 28.9795 12.2018 28.027C12.9659 28.1529 13.7507 28.2192 14.5509 28.2192C15.6833 28.2192 16.7865 28.0882 17.8432 27.8399ZM14.5509 26.1169C7.85286 26.1169 2.4025 20.7302 2.4025 14.1104C2.4025 11.0897 4.88932 8.63363 7.94407 8.63363C10.9988 8.63363 13.4856 11.0914 13.4856 14.1104V17.2605C13.4856 17.8422 13.9624 18.3116 14.5492 18.3116C15.1378 18.3116 15.6128 17.8405 15.6128 17.2605V14.1104C15.6128 11.0897 18.0996 8.63363 21.1543 8.63363C24.2108 8.63363 26.6959 11.0914 26.6959 14.1104C26.6994 20.7302 21.249 26.1169 14.5509 26.1169ZM14.5509 2.10398C18.7019 2.10398 22.3711 4.17224 24.5636 7.31886C23.5362 6.8137 22.3797 6.52965 21.1578 6.52965C18.3491 6.52965 15.8881 8.02982 14.5509 10.2631C13.2154 8.03152 10.7544 6.52965 7.94407 6.52965C6.72045 6.52965 5.56394 6.8137 4.53824 7.31886C6.73077 4.17224 10.3999 2.10398 14.5509 2.10398ZM9.52737 34.9836C5.92707 31.3046 3.54695 26.7445 2.59697 21.8137C4.17855 24.2034 6.47262 26.0914 9.17973 27.1817C10.1848 29.0169 11.4566 30.7025 12.9711 32.1975C16.6746 35.8578 21.5175 38.0604 26.7011 38.4652V42.8569C20.1717 42.4351 14.1 39.6576 9.52737 34.9836ZM26.6994 29.8333C24.3072 29.5221 22.0665 28.5747 20.1837 27.0745C22.8891 25.923 25.1642 23.967 26.6994 21.5126V29.8333ZM21.1578 16.6771C19.7259 16.6771 18.5608 15.5256 18.5608 14.1104C18.5608 12.6953 19.7259 11.5438 21.1578 11.5438C22.5896 11.5438 23.7548 12.6953 23.7548 14.1104C23.7548 15.5256 22.5896 16.6771 21.1578 16.6771ZM7.94407 16.6771C6.51221 16.6771 5.3471 15.5256 5.3471 14.1104C5.3471 12.6953 6.51221 11.5438 7.94407 11.5438C9.37593 11.5438 10.541 12.6953 10.541 14.1104C10.541 15.5256 9.37765 16.6771 7.94407 16.6771Z" fill="#000"></path></g><defs><clipPath id="clip0_2983_885"><rect width="102.447" height="45" fill="#000"></rect></clipPath></defs></svg>